<?xml version="1.0" standalone="no"?>
<!DOCTYPE svg PUBLIC "-//W3C//DTD SVG 20010904//EN"
 "http://www.w3.org/TR/2001/REC-SVG-20010904/DTD/svg10.dtd">
<svg version="1.0" xmlns="http://www.w3.org/2000/svg"
 width="1200.000000pt" height="1200.000000pt" viewBox="0 0 1200.000000 1200.000000"
 preserveAspectRatio="xMidYMid meet">
<metadata>
Created by potrace 1.11, written by Peter Selinger 2001-2013
</metadata>
<g transform="translate(0.000000,1200.000000) scale(0.100000,-0.100000)"
fill="#000000" stroke="none">
<path d="M5710 10833 c-154 -11 -437 -48 -570 -74 -981 -190 -1850 -650 -2550
-1349 -611 -610 -1043 -1357 -1269 -2195 -226 -842 -227 -1889 0 -2728 289
-1072 907 -1985 1794 -2654 698 -526 1550 -859 2435 -952 582 -62 1207 -11
1780 144 689 186 1309 509 1870 973 153 127 479 455 614 617 700 843 1088
1731 1203 2756 22 196 25 768 5 964 -84 814 -366 1601 -812 2265 -264 393
-657 818 -1045 1131 -654 528 -1378 868 -2180 1023 -339 66 -576 87 -955 84
-151 -1 -295 -3 -320 -5z m700 -1618 c438 -68 938 -283 1265 -547 166 -133
365 -353 487 -540 227 -344 400 -790 473 -1220 61 -364 59 -272 62 -2170 l4
-1738 -731 0 -730 0 0 1548 c0 1763 -3 1834 -76 2142 -90 381 -314 675 -622
817 -287 133 -787 133 -1075 0 -324 -150 -552 -466 -636 -882 -56 -279 -54
-204 -58 -1982 l-4 -1643 -730 0 -730 0 4 1738 c3 1898 1 1806 62 2170 88 520
312 1036 607 1403 197 246 418 432 683 576 358 194 732 315 1065 343 146 13
558 3 680 -15z"/>
</g>
</svg>
